HIERARCHY
ROOT root
{
	OFFSET	0	13.1	24.9
	CHANNELS 6  Xposition Yposition Zposition Xrotation Yrotation Zrotation
	JOINT spine_1
	{
		OFFSET	0	9.99999	0
		CHANNELS 3  Xrotation Yrotation Zrotation
		JOINT spine_2
		{
			OFFSET	0	112	-10
			CHANNELS 3  Xrotation Yrotation Zrotation
			JOINT spine_3
			{
				OFFSET	0	206.5	19.3
				CHANNELS 3  Xrotation Yrotation Zrotation
				JOINT spine_4
				{
					OFFSET	0	110.4	14.6
					CHANNELS 3  Xrotation Yrotation Zrotation
					JOINT neck_1
					{
						OFFSET	0	71.8	-50.3
						CHANNELS 3  Xrotation Yrotation Zrotation
						JOINT neck_2
						{
							OFFSET	0	86.2	-25.8
							CHANNELS 3  Xrotation Yrotation Zrotation
							JOINT head_ee
							{
								OFFSET	0	179.8	-8.7
								CHANNELS 3  Xrotation Yrotation Zrotation
								End Site
								{
									OFFSET	1	0	0
								}
							}
						}
					}
					JOINT left_clavicle
					{
						OFFSET	-43.2	22.4	-70.8
						CHANNELS 3  Xrotation Yrotation Zrotation
						JOINT left_shoulder
						{
							OFFSET	-93.9	-5.79999	48.7
							CHANNELS 3  Xrotation Yrotation Zrotation
							JOINT left_elbow
							{
								OFFSET	-291.4	-30.8	15.2
								CHANNELS 3  Xrotation Yrotation Zrotation
								JOINT left_lowarm_twist
								{
									OFFSET	-110.7	-3.89999	13.6
									CHANNELS 3  Xrotation Yrotation Zrotation
									JOINT left_hand
									{
										OFFSET	-110.7	-3.89999	13.6
										CHANNELS 3  Xrotation Yrotation Zrotation
										JOINT left_ee
										{
											OFFSET	-80.8	-5.10001	12.1
											CHANNELS 3  Xrotation Yrotation Zrotation
											End Site
											{
												OFFSET	1	0	0
											}
										}
									}
								}
							}
						}
					}
					JOINT right_clavicle
					{
						OFFSET	43.2	22.4	-70.8
						CHANNELS 3  Xrotation Yrotation Zrotation
						JOINT right_shoulder
						{
							OFFSET	93.9	-5.79999	48.7
							CHANNELS 3  Xrotation Yrotation Zrotation
							JOINT right_elbow
							{
								OFFSET	291.4	-30.8	15.2
								CHANNELS 3  Xrotation Yrotation Zrotation
								JOINT right_lowarm_twist
								{
									OFFSET	110.7	-3.89999	13.6
									CHANNELS 3  Xrotation Yrotation Zrotation
									JOINT right_hand
									{
										OFFSET	110.7	-3.89999	13.6
										CHANNELS 3  Xrotation Yrotation Zrotation
										JOINT right_ee
										{
											OFFSET	80.8	-5.10001	12.1
											CHANNELS 3  Xrotation Yrotation Zrotation
											End Site
											{
												OFFSET	1	0	0
											}
										}
									}
								}
							}
						}
					}
				}
			}
		}
	}
	JOINT left_hip
	{
		OFFSET	-82.8	-127.5	0.300001
		CHANNELS 3  Xrotation Yrotation Zrotation
		JOINT left_knee
		{
			OFFSET	-28.2	-396.7	2.2
			CHANNELS 3  Xrotation Yrotation Zrotation
			JOINT left_ankle
			{
				OFFSET	-11.7	-411.3	35.4
				CHANNELS 3  Xrotation Yrotation Zrotation
				JOINT left_toes
				{
					OFFSET	0	-60	-88.6
					CHANNELS 3  Xrotation Yrotation Zrotation
					JOINT left_foot_ee
					{
						OFFSET	-22.5	-16.5	-42.2
						CHANNELS 3  Xrotation Yrotation Zrotation
						End Site
						{
							OFFSET	1	0	0
						}
					}
				}
			}
		}
	}
	JOINT right_hip
	{
		OFFSET	82.8	-127.5	0.300001
		CHANNELS 3  Xrotation Yrotation Zrotation
		JOINT right_knee
		{
			OFFSET	28.2	-396.7	2.2
			CHANNELS 3  Xrotation Yrotation Zrotation
			JOINT right_ankle
			{
				OFFSET	11.7	-411.3	35.4
				CHANNELS 3  Xrotation Yrotation Zrotation
				JOINT right_toes
				{
					OFFSET	0	-60	-88.6
					CHANNELS 3  Xrotation Yrotation Zrotation
					JOINT right_foot_ee
					{
						OFFSET	22.5	-16.5	-42.2
						CHANNELS 3  Xrotation Yrotation Zrotation
						End Site
						{
							OFFSET	1	0	0
						}
					}
				}
			}
		}
	}
}
MOTION
Frames: 14
Frame Time: 0.02
3177.02 653.055 -1669.29 4.28434394906 64.8935841374 -3.65079940659 -2.47871 0.265342 0.0553983 -2.47874 0.261279 0.0721706 -2.47844 0.234624 0.135745 -2.47837 0.253118 0.0969869 -28.7588 13.9542 4.26565 -30.4088 25.1975 12.424 -0.0 0.0 -0.0 4.7966 23.7982 9.31744 -17.1215 0.696816 67.2566 0.283553 -7.99585 0.0198177 -5.94048 -0.246797 0.717826 0.441143 25.0893 12.5003 -0.0 0.0 -0.0 13.2008 26.8183 -26.042 7.52978 21.5225 -52.4861 2.33325 49.1271 -1.06656 71.7721 2.92629 8.07968 1.60937 -25.2594 -19.4549 0.0 0.0 0.0 29.6435 4.76059 -12.1395 -6.55562 0.213873 0.982816 -13.0901 -11.4275 2.08645 6.49791 -0.0 -0.0 -0.0 0.0 -0.0 -15.2853 -5.15593 9.45281 -20.4264 -0.290325 -3.10458 34.2273 26.7253 5.11206 -9.82073 0.0 0.0 0.0 0.0 0.0 
3132.48639432 659.299 -1663.62921695 0.863667751866 62.9247289855 0.111188844413 -2.67549 0.25702 0.0639957 -2.67553 0.252427 0.080221 -2.67519 0.223541 0.142071 -2.67514 0.243173 0.104984 -26.1685 13.8718 4.97409 -27.5085 24.7006 12.2885 -0.0 0.0 -0.0 5.28523 23.8185 9.99676 -14.1568 -0.201582 66.9961 0.331384 -9.32261 0.0270194 -5.51455 -0.226633 0.667233 0.7037 27.0471 14.648 -0.0 0.0 -0.0 13.3768 26.6648 -26.4685 5.75961 20.3802 -52.629 2.2165 47.6678 -0.979261 70.2335 2.76464 7.96634 1.01385 -24.5014 -15.6695 0.0 0.0 0.0 30.5263 5.0557 -11.9095 -10.9204 0.29335 1.64771 -9.59526 -7.02255 1.48519 8.78682 -0.0 -0.0 -0.0 0.0 -0.0 -15.1559 -2.27468 10.9341 -21.8972 -0.268275 -3.32917 30.8763 22.6317 4.53335 -10.8126 0.0 0.0 0.0 0.0 0.0 
3132.51720355 659.299 -1663.39189789 0.872781498023 63.2301273857 0.100967313121 -2.67549 0.25702 0.0639957 -2.67553 0.252427 0.080221 -2.67519 0.223541 0.142071 -2.67514 0.243173 0.104984 -26.1685 13.8718 4.97409 -27.5085 24.7006 12.2885 -0.0 0.0 -0.0 5.28523 23.8185 9.99676 -14.1568 -0.201582 66.9961 0.331384 -9.32261 0.0270194 -5.51455 -0.226633 0.667233 0.7037 27.0471 14.648 -0.0 0.0 -0.0 13.3768 26.6648 -26.4685 5.75961 20.3802 -52.629 2.2165 47.6678 -0.979261 70.2335 2.76464 7.96634 1.01385 -24.5014 -15.6695 0.0 0.0 0.0 30.5263 5.0557 -11.9095 -10.9204 0.29335 1.64771 -9.59526 -7.02255 1.48519 8.78682 -0.0 -0.0 -0.0 0.0 -0.0 -15.1559 -2.27468 10.9341 -21.8972 -0.268275 -3.32917 30.8763 22.6317 4.53335 -10.8126 0.0 0.0 0.0 0.0 0.0 
3132.53962064 659.299 -1663.22515444 0.879319853359 63.4448324206 0.093650988779 -2.67549 0.25702 0.0639957 -2.67553 0.252427 0.080221 -2.67519 0.223541 0.142071 -2.67514 0.243173 0.104984 -26.1685 13.8718 4.97409 -27.5085 24.7006 12.2885 -0.0 0.0 -0.0 5.28523 23.8185 9.99676 -14.1568 -0.201582 66.9961 0.331384 -9.32261 0.0270194 -5.51455 -0.226633 0.667233 0.7037 27.0471 14.648 -0.0 0.0 -0.0 13.3768 26.6648 -26.4685 5.75961 20.3802 -52.629 2.2165 47.6678 -0.979261 70.2335 2.76464 7.96634 1.01385 -24.5014 -15.6695 0.0 0.0 0.0 30.5263 5.0557 -11.9095 -10.9204 0.29335 1.64771 -9.59526 -7.02255 1.48519 8.78682 -0.0 -0.0 -0.0 0.0 -0.0 -15.1559 -2.27468 10.9341 -21.8972 -0.268275 -3.32917 30.8763 22.6317 4.53335 -10.8126 0.0 0.0 0.0 0.0 0.0 
3031.42826344 667.957 -1660.17498236 4.1691566917 62.5419453158 -3.71982667826 -2.8335 -0.0878234 0.175054 -2.83349 -0.0987845 0.169111 -2.83378 -0.139107 0.137863 -2.83379 -0.115589 0.158102 -24.3865 13.3318 6.9264 -25.2973 22.7366 13.2367 -0.0 0.0 -0.0 6.20553 23.4518 11.3133 -7.11579 -2.48197 64.5289 0.505292 -14.053 0.0622796 -6.11203 -0.255025 0.738161 0.764603 28.1891 15.3459 -0.0 0.0 -0.0 13.427 26.4574 -26.6107 -0.755561 17.656 -54.8382 1.67511 39.6826 -0.604478 68.9712 2.63432 7.87016 0.0331921 -27.2183 -10.9062 0.0 0.0 0.0 27.787 7.55467 -9.8672 -24.9944 0.203025 3.79992 6.2498 -5.79884 -0.926405 14.7391 -0.0 -0.0 -0.0 0.0 -0.0 -14.2908 7.55954 14.6317 -31.5824 0.0197875 -4.78587 33.7549 5.81437 4.36343 -12.6309 0.0 0.0 0.0 0.0 0.0 
3008.07959559 665.92 -1662.83356457 5.8446085863 62.3251833252 -5.23396415447 -2.88229 -0.061727 0.288836 -2.88224 -0.0799812 0.284322 -2.88261 -0.150913 0.253893 -2.88269 -0.108922 0.27454 -25.4183 13.6194 6.14301 -26.5382 23.7048 12.9768 -0.0 0.0 -0.0 6.28853 22.5328 11.4988 -5.7112 -3.20089 63.7331 0.540499 -14.9894 0.0711076 -5.10728 -0.207705 0.618721 0.200463 27.5815 11.9699 -0.0 0.0 -0.0 13.04 26.4357 -25.7175 -1.2505 17.1664 -56.4362 1.43385 35.3836 -0.457395 69.0721 2.64465 7.87794 -0.240554 -29.1352 -10.0758 0.0 0.0 0.0 23.5644 8.32091 -8.43164 -22.5755 0.256164 3.43255 14.5967 -4.44183 -2.08515 13.4997 -0.0 -0.0 -0.0 0.0 -0.0 -13.9514 11.3499 14.0914 -37.3102 0.304574 -5.61804 34.1396 -0.899579 4.32904 -12.4189 0.0 0.0 0.0 0.0 0.0 
3008.08753489 665.92 -1662.62906664 5.85811058692 62.3941786185 -5.24920554013 -2.88229 -0.061727 0.288836 -2.88224 -0.0799812 0.284322 -2.88261 -0.150913 0.253893 -2.88269 -0.108922 0.27454 -25.4183 13.6194 6.14301 -26.5382 23.7048 12.9768 -0.0 0.0 -0.0 6.28853 22.5328 11.4988 -5.7112 -3.20089 63.7331 0.540499 -14.9894 0.0711076 -5.10728 -0.207705 0.618721 0.200463 27.5815 11.9699 -0.0 0.0 -0.0 13.04 26.4357 -25.7175 -1.2505 17.1664 -56.4362 1.43385 35.3836 -0.457395 69.0721 2.64465 7.87794 -0.240554 -29.1352 -10.0758 0.0 0.0 0.0 23.5644 8.32091 -8.43164 -22.5755 0.256164 3.43255 14.5967 -4.44183 -2.08515 13.4997 -0.0 -0.0 -0.0 0.0 -0.0 -13.9514 11.3499 14.0914 -37.3102 0.304574 -5.61804 34.1396 -0.899579 4.32904 -12.4189 0.0 0.0 0.0 0.0 0.0 
3008.06260105 665.92 -1663.29474024 5.81441904926 62.1695933452 -5.19985042024 -2.88229 -0.061727 0.288836 -2.88224 -0.0799812 0.284322 -2.88261 -0.150913 0.253893 -2.88269 -0.108922 0.27454 -25.4183 13.6194 6.14301 -26.5382 23.7048 12.9768 -0.0 0.0 -0.0 6.28853 22.5328 11.4988 -5.7112 -3.20089 63.7331 0.540499 -14.9894 0.0711076 -5.10728 -0.207705 0.618721 0.200463 27.5815 11.9699 -0.0 0.0 -0.0 13.04 26.4357 -25.7175 -1.2505 17.1664 -56.4362 1.43385 35.3836 -0.457395 69.0721 2.64465 7.87794 -0.240554 -29.1352 -10.0758 0.0 0.0 0.0 23.5644 8.32091 -8.43164 -22.5755 0.256164 3.43255 14.5967 -4.44183 -2.08515 13.4997 -0.0 -0.0 -0.0 0.0 -0.0 -13.9514 11.3499 14.0914 -37.3102 0.304574 -5.61804 34.1396 -0.899579 4.32904 -12.4189 0.0 0.0 0.0 0.0 0.0 
3008.044713 665.92 -1663.82207686 5.78033277461 61.9916904324 -5.16127420408 -2.88229 -0.061727 0.288836 -2.88224 -0.0799812 0.284322 -2.88261 -0.150913 0.253893 -2.88269 -0.108922 0.27454 -25.4183 13.6194 6.14301 -26.5382 23.7048 12.9768 -0.0 0.0 -0.0 6.28853 22.5328 11.4988 -5.7112 -3.20089 63.7331 0.540499 -14.9894 0.0711076 -5.10728 -0.207705 0.618721 0.200463 27.5815 11.9699 -0.0 0.0 -0.0 13.04 26.4357 -25.7175 -1.2505 17.1664 -56.4362 1.43385 35.3836 -0.457395 69.0721 2.64465 7.87794 -0.240554 -29.1352 -10.0758 0.0 0.0 0.0 23.5644 8.32091 -8.43164 -22.5755 0.256164 3.43255 14.5967 -4.44183 -2.08515 13.4997 -0.0 -0.0 -0.0 0.0 -0.0 -13.9514 11.3499 14.0914 -37.3102 0.304574 -5.61804 34.1396 -0.899579 4.32904 -12.4189 0.0 0.0 0.0 0.0 0.0 
3008.0390929 665.92 -1663.99860739 5.76902411311 61.9321375948 -5.14846182324 -2.88229 -0.061727 0.288836 -2.88224 -0.0799812 0.284322 -2.88261 -0.150913 0.253893 -2.88269 -0.108922 0.27454 -25.4183 13.6194 6.14301 -26.5382 23.7048 12.9768 -0.0 0.0 -0.0 6.28853 22.5328 11.4988 -5.7112 -3.20089 63.7331 0.540499 -14.9894 0.0711076 -5.10728 -0.207705 0.618721 0.200463 27.5815 11.9699 -0.0 0.0 -0.0 13.04 26.4357 -25.7175 -1.2505 17.1664 -56.4362 1.43385 35.3836 -0.457395 69.0721 2.64465 7.87794 -0.240554 -29.1352 -10.0758 0.0 0.0 0.0 23.5644 8.32091 -8.43164 -22.5755 0.256164 3.43255 14.5967 -4.44183 -2.08515 13.4997 -0.0 -0.0 -0.0 0.0 -0.0 -13.9514 11.3499 14.0914 -37.3102 0.304574 -5.61804 34.1396 -0.899579 4.32904 -12.4189 0.0 0.0 0.0 0.0 0.0 
2987.67496579 667.693 -1662.08013722 7.12935337983 62.3099269383 -6.94842379514 -2.91462 -0.0387206 0.292119 -2.91457 -0.0572303 0.289063 -2.91483 -0.130316 0.264293 -2.91491 -0.0869402 0.281557 -25.5447 12.8214 7.0229 -26.4349 21.8271 13.3276 -0.0 0.0 -0.0 6.94285 22.4453 12.4577 -5.35306 -3.35955 62.0394 0.55514 -15.3764 0.0749422 -6.07687 -0.253334 0.733995 0.666149 27.1589 14.4681 -0.0 0.0 -0.0 13.0889 26.122 -25.8681 -2.65625 16.3626 -56.3338 1.27691 32.3138 -0.36995 69.1559 2.65325 7.88441 -0.276815 -29.0323 -9.84073 0.0 0.0 0.0 23.9934 8.6461 -7.76702 -28.6354 0.0939106 4.34795 17.1338 -3.48662 -2.41228 16.9867 -0.0 -0.0 -0.0 0.0 -0.0 -13.8595 13.6045 14.099 -41.3763 0.55664 -6.18986 37.6208 -3.79886 4.6473 -12.0863 0.0 0.0 0.0 0.0 0.0 
2962.53834653 672.562 -1655.6792276 9.82953683118 63.9683605184 -9.05208722274 -3.01846 -0.166737 0.196587 -3.01845 -0.178908 0.185579 -3.01906 -0.221195 0.132364 -3.01903 -0.197515 0.165637 -25.621 13.2668 7.28981 -26.5826 22.5836 13.8483 -0.0 0.0 -0.0 7.07185 21.916 12.6959 -3.34889 -5.07102 61.4552 0.636107 -17.4902 0.0978515 -5.95031 -0.247267 0.718992 0.660614 26.5 14.2286 -0.0 0.0 -0.0 12.7523 25.3584 -25.179 -4.64757 15.2149 -56.5413 1.09137 28.3963 -0.276129 69.0205 2.63937 7.87397 -0.383881 -28.7806 -9.16392 0.0 0.0 0.0 20.469 8.922 -6.81436 -28.2841 0.105954 4.29539 20.7432 -1.37238 -2.85309 16.5802 -0.0 -0.0 -0.0 0.0 -0.0 -13.2043 15.7739 12.7092 -44.5098 0.778318 -6.61775 35.5754 -7.54269 4.45676 -12.6543 0.0 0.0 0.0 0.0 0.0 
2940.01283121 671.672 -1647.34226107 14.0841578216 65.7194781547 -12.7997725284 -3.06581 -0.363764 -0.00376536 -3.06588 -0.362787 -0.0269053 -3.06579 -0.343045 -0.121073 -3.06563 -0.357861 -0.065375 -24.1295 13.2217 6.93727 -24.9989 22.4937 13.118 -0.0 0.0 -0.0 7.04863 18.8707 12.9226 -0.790713 -5.30655 61.3939 0.5922 -16.3496 0.0850724 -5.22687 -0.213227 0.63298 0.632597 26.963 14.2145 -0.0 0.0 -0.0 12.5301 25.0738 -24.6985 -5.76924 14.4361 -57.6154 0.908177 24.2219 -0.194882 69.2402 2.66192 7.8909 -0.595392 -29.0242 -8.1058 0.0 0.0 0.0 16.8094 9.34005 -6.28225 -27.9337 0.117646 4.24289 22.9076 -1.20912 -3.11524 16.7109 -0.0 -0.0 -0.0 0.0 -0.0 -11.3001 20.2231 12.5675 -49.1023 1.14489 -7.22188 38.5283 -12.3583 4.7655 -12.5182 0.0 0.0 0.0 0.0 0.0 
2922.78450566 672.281 -1650.73262903 13.9129906153 64.573105279 -12.1077969854 -2.98075 -0.332651 -0.178213 -2.98079 -0.320637 -0.19902 -2.97966 -0.257665 -0.275728 -2.97964 -0.297977 -0.231575 -25.6652 13.0452 9.55983 -26.373 21.2562 15.7618 -0.0 0.0 -0.0 6.75331 15.8168 12.6611 1.03092 -6.09536 61.2097 0.598379 -16.511 0.0868201 -2.3747 -0.0897003 0.289945 1.02484 26.8726 16.4471 -0.0 0.0 -0.0 12.2755 24.2013 -24.2049 -6.77274 15.0463 -58.5075 0.789218 21.3532 -0.148793 70.7789 2.82158 8.00701 -0.416839 -29.0424 -9.08199 0.0 0.0 0.0 12.9852 9.11793 -6.10415 -23.1452 0.245046 3.51927 24.8235 2.43483 -3.31926 14.0835 -0.0 -0.0 -0.0 0.0 -0.0 -9.14638 24.7172 9.94202 -53.545 1.54472 -7.77704 41.0742 -15.3634 5.03362 -11.8962 0.0 0.0 0.0 0.0 0.0 
